<?xml version="1.0" encoding="UTF-8"?>
<svg id="Layer_1" data-name="Layer 1" xmlns="http://www.w3.org/2000/svg" viewBox="0 0 278.81 302.3">
  <defs>
    <style>
      .cls-1 {
        fill: none;
        stroke: #000;
        stroke-miterlimit: 10;
        stroke-width: 20px;
      }
    </style>
  </defs>
  <rect class="cls-1" x="40.08" y="48.98" width="208.89" height="208.89"/>
  <g>
    <path d="M79.94,215.17c-9.63,0-13.59-3.27-13.59-10.32,0-1.89.34-4.13.86-6.71l11.18-52.98c2.41-11.7,9.12-17.03,19.95-17.03h41.11l-4.47,20.81h-28.72c-3.61,0-4.82.86-5.68,4.82l-7.4,35.26c-.17.86-.34,1.72-.34,2.24,0,1.89,1.03,2.58,3.96,2.58h37.32l21.67-102.17h24.25l-26.14,123.49h-73.96Z"/>
    <path d="M172.47,215.17l26.14-123.49h24.08l-26.14,123.49h-24.08Z"/>
  </g>
</svg>